<mxfile host="app.diagrams.net" modified="2022-12-19T18:44:10.931Z" agent="5.0 (Windows NT 10.0; Win64; x64) AppleWebKit/537.36 (KHTML, like Gecko) Chrome/108.0.0.0 Safari/537.36" etag="eftOS1WRB_5mnFoWr_GC" version="20.7.4" type="github">
  <diagram id="C5RBs43oDa-KdzZeNtuy" name="Page-1">
    <mxGraphModel dx="1195" dy="692" grid="1" gridSize="10" guides="1" tooltips="1" connect="1" arrows="1" fold="1" page="1" pageScale="1" pageWidth="827" pageHeight="1169" math="0" shadow="0">
      <root>
        <mxCell id="WIyWlLk6GJQsqaUBKTNV-0" />
        <mxCell id="WIyWlLk6GJQsqaUBKTNV-1" parent="WIyWlLk6GJQsqaUBKTNV-0" />
        <mxCell id="WIyWlLk6GJQsqaUBKTNV-2" value="" style="rounded=0;html=1;jettySize=auto;orthogonalLoop=1;fontSize=11;endArrow=block;endFill=0;endSize=8;strokeWidth=1;shadow=0;labelBackgroundColor=none;edgeStyle=orthogonalEdgeStyle;" parent="WIyWlLk6GJQsqaUBKTNV-1" source="WIyWlLk6GJQsqaUBKTNV-3" target="WIyWlLk6GJQsqaUBKTNV-6" edge="1">
          <mxGeometry relative="1" as="geometry" />
        </mxCell>
        <mxCell id="WIyWlLk6GJQsqaUBKTNV-3" value="Start" style="rounded=1;whiteSpace=wrap;html=1;fontSize=12;glass=0;strokeWidth=1;shadow=0;" parent="WIyWlLk6GJQsqaUBKTNV-1" vertex="1">
          <mxGeometry x="160" y="80" width="120" height="40" as="geometry" />
        </mxCell>
        <mxCell id="wFF-H1AZ3Ygg1HiLSA4w-1" value="" style="edgeStyle=orthogonalEdgeStyle;rounded=0;orthogonalLoop=1;jettySize=auto;html=1;" edge="1" parent="WIyWlLk6GJQsqaUBKTNV-1" source="WIyWlLk6GJQsqaUBKTNV-6" target="wFF-H1AZ3Ygg1HiLSA4w-0">
          <mxGeometry relative="1" as="geometry" />
        </mxCell>
        <mxCell id="wFF-H1AZ3Ygg1HiLSA4w-7" value="" style="edgeStyle=orthogonalEdgeStyle;rounded=0;orthogonalLoop=1;jettySize=auto;html=1;" edge="1" parent="WIyWlLk6GJQsqaUBKTNV-1" source="WIyWlLk6GJQsqaUBKTNV-6" target="wFF-H1AZ3Ygg1HiLSA4w-6">
          <mxGeometry relative="1" as="geometry" />
        </mxCell>
        <mxCell id="WIyWlLk6GJQsqaUBKTNV-6" value="Get Path" style="rhombus;whiteSpace=wrap;html=1;shadow=0;fontFamily=Helvetica;fontSize=12;align=center;strokeWidth=1;spacing=6;spacingTop=-4;" parent="WIyWlLk6GJQsqaUBKTNV-1" vertex="1">
          <mxGeometry x="170" y="170" width="100" height="80" as="geometry" />
        </mxCell>
        <mxCell id="wFF-H1AZ3Ygg1HiLSA4w-3" value="" style="edgeStyle=orthogonalEdgeStyle;rounded=0;orthogonalLoop=1;jettySize=auto;html=1;" edge="1" parent="WIyWlLk6GJQsqaUBKTNV-1" source="wFF-H1AZ3Ygg1HiLSA4w-0" target="wFF-H1AZ3Ygg1HiLSA4w-2">
          <mxGeometry relative="1" as="geometry" />
        </mxCell>
        <mxCell id="wFF-H1AZ3Ygg1HiLSA4w-0" value="Find &quot;Path=&quot; In Environ[i]" style="whiteSpace=wrap;html=1;shadow=0;strokeWidth=1;spacing=6;spacingTop=-4;" vertex="1" parent="WIyWlLk6GJQsqaUBKTNV-1">
          <mxGeometry x="340" y="180" width="120" height="60" as="geometry" />
        </mxCell>
        <mxCell id="wFF-H1AZ3Ygg1HiLSA4w-5" value="" style="edgeStyle=orthogonalEdgeStyle;rounded=0;orthogonalLoop=1;jettySize=auto;html=1;" edge="1" parent="WIyWlLk6GJQsqaUBKTNV-1" source="wFF-H1AZ3Ygg1HiLSA4w-2" target="wFF-H1AZ3Ygg1HiLSA4w-4">
          <mxGeometry relative="1" as="geometry" />
        </mxCell>
        <mxCell id="wFF-H1AZ3Ygg1HiLSA4w-2" value="Tokenize Path" style="whiteSpace=wrap;html=1;shadow=0;strokeWidth=1;spacing=6;spacingTop=-4;" vertex="1" parent="WIyWlLk6GJQsqaUBKTNV-1">
          <mxGeometry x="540" y="180" width="120" height="60" as="geometry" />
        </mxCell>
        <mxCell id="wFF-H1AZ3Ygg1HiLSA4w-4" value="Store In Array" style="whiteSpace=wrap;html=1;shadow=0;strokeWidth=1;spacing=6;spacingTop=-4;" vertex="1" parent="WIyWlLk6GJQsqaUBKTNV-1">
          <mxGeometry x="740" y="180" width="120" height="60" as="geometry" />
        </mxCell>
        <mxCell id="wFF-H1AZ3Ygg1HiLSA4w-11" value="" style="edgeStyle=orthogonalEdgeStyle;rounded=0;orthogonalLoop=1;jettySize=auto;html=1;" edge="1" parent="WIyWlLk6GJQsqaUBKTNV-1" source="wFF-H1AZ3Ygg1HiLSA4w-6" target="wFF-H1AZ3Ygg1HiLSA4w-10">
          <mxGeometry relative="1" as="geometry" />
        </mxCell>
        <mxCell id="wFF-H1AZ3Ygg1HiLSA4w-107" style="edgeStyle=orthogonalEdgeStyle;rounded=0;orthogonalLoop=1;jettySize=auto;html=1;entryX=0;entryY=0.5;entryDx=0;entryDy=0;" edge="1" parent="WIyWlLk6GJQsqaUBKTNV-1" target="wFF-H1AZ3Ygg1HiLSA4w-6">
          <mxGeometry relative="1" as="geometry">
            <mxPoint x="110" y="370" as="targetPoint" />
            <mxPoint x="40" y="360" as="sourcePoint" />
          </mxGeometry>
        </mxCell>
        <mxCell id="wFF-H1AZ3Ygg1HiLSA4w-6" value="Loop Function" style="rhombus;whiteSpace=wrap;html=1;shadow=0;fontFamily=Helvetica;fontSize=12;align=center;strokeWidth=1;spacing=6;spacingTop=-4;" vertex="1" parent="WIyWlLk6GJQsqaUBKTNV-1">
          <mxGeometry x="170" y="330" width="100" height="80" as="geometry" />
        </mxCell>
        <mxCell id="wFF-H1AZ3Ygg1HiLSA4w-13" value="" style="edgeStyle=orthogonalEdgeStyle;rounded=0;orthogonalLoop=1;jettySize=auto;html=1;" edge="1" parent="WIyWlLk6GJQsqaUBKTNV-1" source="wFF-H1AZ3Ygg1HiLSA4w-10" target="wFF-H1AZ3Ygg1HiLSA4w-12">
          <mxGeometry relative="1" as="geometry" />
        </mxCell>
        <mxCell id="wFF-H1AZ3Ygg1HiLSA4w-15" value="" style="edgeStyle=orthogonalEdgeStyle;rounded=0;orthogonalLoop=1;jettySize=auto;html=1;" edge="1" parent="WIyWlLk6GJQsqaUBKTNV-1" source="wFF-H1AZ3Ygg1HiLSA4w-10" target="wFF-H1AZ3Ygg1HiLSA4w-14">
          <mxGeometry relative="1" as="geometry" />
        </mxCell>
        <mxCell id="wFF-H1AZ3Ygg1HiLSA4w-10" value="Interactive Or Not?" style="rhombus;whiteSpace=wrap;html=1;shadow=0;fontFamily=Helvetica;fontSize=12;align=center;strokeWidth=1;spacing=6;spacingTop=-4;" vertex="1" parent="WIyWlLk6GJQsqaUBKTNV-1">
          <mxGeometry x="170" y="490" width="100" height="80" as="geometry" />
        </mxCell>
        <mxCell id="wFF-H1AZ3Ygg1HiLSA4w-17" value="" style="edgeStyle=orthogonalEdgeStyle;rounded=0;orthogonalLoop=1;jettySize=auto;html=1;" edge="1" parent="WIyWlLk6GJQsqaUBKTNV-1" source="wFF-H1AZ3Ygg1HiLSA4w-12" target="wFF-H1AZ3Ygg1HiLSA4w-16">
          <mxGeometry relative="1" as="geometry" />
        </mxCell>
        <mxCell id="wFF-H1AZ3Ygg1HiLSA4w-12" value="Interactive" style="shape=singleArrow;whiteSpace=wrap;html=1;arrowWidth=0.4;arrowSize=0.4;shadow=0;strokeWidth=1;spacing=6;spacingTop=-4;" vertex="1" parent="WIyWlLk6GJQsqaUBKTNV-1">
          <mxGeometry x="360" y="500" width="80" height="60" as="geometry" />
        </mxCell>
        <mxCell id="wFF-H1AZ3Ygg1HiLSA4w-20" style="edgeStyle=orthogonalEdgeStyle;rounded=0;orthogonalLoop=1;jettySize=auto;html=1;" edge="1" parent="WIyWlLk6GJQsqaUBKTNV-1" source="wFF-H1AZ3Ygg1HiLSA4w-14" target="wFF-H1AZ3Ygg1HiLSA4w-18">
          <mxGeometry relative="1" as="geometry" />
        </mxCell>
        <mxCell id="wFF-H1AZ3Ygg1HiLSA4w-14" value="Not Interactive" style="shape=singleArrow;whiteSpace=wrap;html=1;arrowWidth=0.4;arrowSize=0.4;shadow=0;strokeWidth=1;spacing=6;spacingTop=-4;" vertex="1" parent="WIyWlLk6GJQsqaUBKTNV-1">
          <mxGeometry x="180" y="660" width="80" height="60" as="geometry" />
        </mxCell>
        <mxCell id="wFF-H1AZ3Ygg1HiLSA4w-19" value="" style="edgeStyle=orthogonalEdgeStyle;rounded=0;orthogonalLoop=1;jettySize=auto;html=1;" edge="1" parent="WIyWlLk6GJQsqaUBKTNV-1" source="wFF-H1AZ3Ygg1HiLSA4w-16" target="wFF-H1AZ3Ygg1HiLSA4w-18">
          <mxGeometry relative="1" as="geometry" />
        </mxCell>
        <mxCell id="wFF-H1AZ3Ygg1HiLSA4w-16" value="Print &quot;$ &quot;" style="whiteSpace=wrap;html=1;shadow=0;strokeWidth=1;spacing=6;spacingTop=-4;" vertex="1" parent="WIyWlLk6GJQsqaUBKTNV-1">
          <mxGeometry x="500" y="500" width="120" height="60" as="geometry" />
        </mxCell>
        <mxCell id="wFF-H1AZ3Ygg1HiLSA4w-22" value="" style="edgeStyle=orthogonalEdgeStyle;rounded=0;orthogonalLoop=1;jettySize=auto;html=1;" edge="1" parent="WIyWlLk6GJQsqaUBKTNV-1" source="wFF-H1AZ3Ygg1HiLSA4w-18" target="wFF-H1AZ3Ygg1HiLSA4w-21">
          <mxGeometry relative="1" as="geometry" />
        </mxCell>
        <mxCell id="wFF-H1AZ3Ygg1HiLSA4w-18" value="Get Line" style="triangle;whiteSpace=wrap;html=1;shadow=0;strokeWidth=1;spacing=6;spacingTop=-4;" vertex="1" parent="WIyWlLk6GJQsqaUBKTNV-1">
          <mxGeometry x="530" y="630" width="120" height="80" as="geometry" />
        </mxCell>
        <mxCell id="wFF-H1AZ3Ygg1HiLSA4w-24" value="" style="edgeStyle=orthogonalEdgeStyle;rounded=0;orthogonalLoop=1;jettySize=auto;html=1;" edge="1" parent="WIyWlLk6GJQsqaUBKTNV-1" source="wFF-H1AZ3Ygg1HiLSA4w-21" target="wFF-H1AZ3Ygg1HiLSA4w-23">
          <mxGeometry relative="1" as="geometry" />
        </mxCell>
        <mxCell id="wFF-H1AZ3Ygg1HiLSA4w-21" value="Tokenize and Store" style="rhombus;whiteSpace=wrap;html=1;shadow=0;strokeWidth=1;spacing=6;spacingTop=-4;" vertex="1" parent="WIyWlLk6GJQsqaUBKTNV-1">
          <mxGeometry x="550" y="790" width="80" height="80" as="geometry" />
        </mxCell>
        <mxCell id="wFF-H1AZ3Ygg1HiLSA4w-26" value="" style="edgeStyle=orthogonalEdgeStyle;rounded=0;orthogonalLoop=1;jettySize=auto;html=1;" edge="1" parent="WIyWlLk6GJQsqaUBKTNV-1" source="wFF-H1AZ3Ygg1HiLSA4w-23" target="wFF-H1AZ3Ygg1HiLSA4w-25">
          <mxGeometry relative="1" as="geometry" />
        </mxCell>
        <mxCell id="wFF-H1AZ3Ygg1HiLSA4w-28" value="" style="edgeStyle=orthogonalEdgeStyle;rounded=0;orthogonalLoop=1;jettySize=auto;html=1;" edge="1" parent="WIyWlLk6GJQsqaUBKTNV-1" source="wFF-H1AZ3Ygg1HiLSA4w-23" target="wFF-H1AZ3Ygg1HiLSA4w-27">
          <mxGeometry relative="1" as="geometry" />
        </mxCell>
        <mxCell id="wFF-H1AZ3Ygg1HiLSA4w-30" value="" style="edgeStyle=orthogonalEdgeStyle;rounded=0;orthogonalLoop=1;jettySize=auto;html=1;" edge="1" parent="WIyWlLk6GJQsqaUBKTNV-1" source="wFF-H1AZ3Ygg1HiLSA4w-23" target="wFF-H1AZ3Ygg1HiLSA4w-29">
          <mxGeometry relative="1" as="geometry" />
        </mxCell>
        <mxCell id="wFF-H1AZ3Ygg1HiLSA4w-23" value="What Is First Arg Of User Input?" style="rhombus;whiteSpace=wrap;html=1;shadow=0;strokeWidth=1;spacing=6;spacingTop=-4;" vertex="1" parent="WIyWlLk6GJQsqaUBKTNV-1">
          <mxGeometry x="515" y="940" width="150" height="120" as="geometry" />
        </mxCell>
        <mxCell id="wFF-H1AZ3Ygg1HiLSA4w-32" value="" style="edgeStyle=orthogonalEdgeStyle;rounded=0;orthogonalLoop=1;jettySize=auto;html=1;" edge="1" parent="WIyWlLk6GJQsqaUBKTNV-1" source="wFF-H1AZ3Ygg1HiLSA4w-25" target="wFF-H1AZ3Ygg1HiLSA4w-31">
          <mxGeometry relative="1" as="geometry" />
        </mxCell>
        <mxCell id="wFF-H1AZ3Ygg1HiLSA4w-25" value="exit" style="rhombus;whiteSpace=wrap;html=1;shadow=0;strokeWidth=1;spacing=6;spacingTop=-4;" vertex="1" parent="WIyWlLk6GJQsqaUBKTNV-1">
          <mxGeometry x="285" y="940" width="150" height="120" as="geometry" />
        </mxCell>
        <mxCell id="wFF-H1AZ3Ygg1HiLSA4w-36" value="" style="edgeStyle=orthogonalEdgeStyle;rounded=0;orthogonalLoop=1;jettySize=auto;html=1;" edge="1" parent="WIyWlLk6GJQsqaUBKTNV-1" source="wFF-H1AZ3Ygg1HiLSA4w-27" target="wFF-H1AZ3Ygg1HiLSA4w-35">
          <mxGeometry relative="1" as="geometry" />
        </mxCell>
        <mxCell id="wFF-H1AZ3Ygg1HiLSA4w-27" value="env" style="rhombus;whiteSpace=wrap;html=1;shadow=0;strokeWidth=1;spacing=6;spacingTop=-4;" vertex="1" parent="WIyWlLk6GJQsqaUBKTNV-1">
          <mxGeometry x="745" y="940" width="150" height="120" as="geometry" />
        </mxCell>
        <mxCell id="wFF-H1AZ3Ygg1HiLSA4w-38" value="" style="edgeStyle=orthogonalEdgeStyle;rounded=0;orthogonalLoop=1;jettySize=auto;html=1;" edge="1" parent="WIyWlLk6GJQsqaUBKTNV-1" source="wFF-H1AZ3Ygg1HiLSA4w-29" target="wFF-H1AZ3Ygg1HiLSA4w-37">
          <mxGeometry relative="1" as="geometry" />
        </mxCell>
        <mxCell id="wFF-H1AZ3Ygg1HiLSA4w-29" value="else" style="rhombus;whiteSpace=wrap;html=1;shadow=0;strokeWidth=1;spacing=6;spacingTop=-4;" vertex="1" parent="WIyWlLk6GJQsqaUBKTNV-1">
          <mxGeometry x="515" y="1140" width="150" height="120" as="geometry" />
        </mxCell>
        <mxCell id="wFF-H1AZ3Ygg1HiLSA4w-31" value="Free Memory&lt;br&gt;exit with exit_status" style="rhombus;whiteSpace=wrap;html=1;shadow=0;strokeWidth=1;spacing=6;spacingTop=-4;" vertex="1" parent="WIyWlLk6GJQsqaUBKTNV-1">
          <mxGeometry x="55" y="940" width="150" height="120" as="geometry" />
        </mxCell>
        <mxCell id="wFF-H1AZ3Ygg1HiLSA4w-35" value="Loop Through Environ&lt;br&gt;Print Each Line" style="rhombus;whiteSpace=wrap;html=1;shadow=0;strokeWidth=1;spacing=6;spacingTop=-4;" vertex="1" parent="WIyWlLk6GJQsqaUBKTNV-1">
          <mxGeometry x="975" y="940" width="150" height="120" as="geometry" />
        </mxCell>
        <mxCell id="wFF-H1AZ3Ygg1HiLSA4w-42" value="" style="edgeStyle=orthogonalEdgeStyle;rounded=0;orthogonalLoop=1;jettySize=auto;html=1;" edge="1" parent="WIyWlLk6GJQsqaUBKTNV-1" source="wFF-H1AZ3Ygg1HiLSA4w-37" target="wFF-H1AZ3Ygg1HiLSA4w-41">
          <mxGeometry relative="1" as="geometry" />
        </mxCell>
        <mxCell id="wFF-H1AZ3Ygg1HiLSA4w-46" value="" style="edgeStyle=orthogonalEdgeStyle;rounded=0;orthogonalLoop=1;jettySize=auto;html=1;" edge="1" parent="WIyWlLk6GJQsqaUBKTNV-1" source="wFF-H1AZ3Ygg1HiLSA4w-37" target="wFF-H1AZ3Ygg1HiLSA4w-45">
          <mxGeometry relative="1" as="geometry" />
        </mxCell>
        <mxCell id="wFF-H1AZ3Ygg1HiLSA4w-37" value="Check for edge cases" style="whiteSpace=wrap;html=1;shadow=0;strokeWidth=1;spacing=6;spacingTop=-4;" vertex="1" parent="WIyWlLk6GJQsqaUBKTNV-1">
          <mxGeometry x="530" y="1370" width="120" height="60" as="geometry" />
        </mxCell>
        <mxCell id="wFF-H1AZ3Ygg1HiLSA4w-44" value="" style="edgeStyle=orthogonalEdgeStyle;rounded=0;orthogonalLoop=1;jettySize=auto;html=1;" edge="1" parent="WIyWlLk6GJQsqaUBKTNV-1" source="wFF-H1AZ3Ygg1HiLSA4w-41" target="wFF-H1AZ3Ygg1HiLSA4w-43">
          <mxGeometry relative="1" as="geometry" />
        </mxCell>
        <mxCell id="wFF-H1AZ3Ygg1HiLSA4w-41" value="Edge?" style="shape=singleArrow;whiteSpace=wrap;html=1;arrowWidth=0.4;arrowSize=0.4;shadow=0;strokeWidth=1;spacing=6;spacingTop=-4;" vertex="1" parent="WIyWlLk6GJQsqaUBKTNV-1">
          <mxGeometry x="750" y="1370" width="80" height="60" as="geometry" />
        </mxCell>
        <mxCell id="wFF-H1AZ3Ygg1HiLSA4w-43" value="Print Failure Message" style="whiteSpace=wrap;html=1;shadow=0;strokeWidth=1;spacing=6;spacingTop=-4;" vertex="1" parent="WIyWlLk6GJQsqaUBKTNV-1">
          <mxGeometry x="890" y="1370" width="120" height="60" as="geometry" />
        </mxCell>
        <mxCell id="wFF-H1AZ3Ygg1HiLSA4w-48" value="" style="edgeStyle=orthogonalEdgeStyle;rounded=0;orthogonalLoop=1;jettySize=auto;html=1;" edge="1" parent="WIyWlLk6GJQsqaUBKTNV-1" source="wFF-H1AZ3Ygg1HiLSA4w-45" target="wFF-H1AZ3Ygg1HiLSA4w-47">
          <mxGeometry relative="1" as="geometry" />
        </mxCell>
        <mxCell id="wFF-H1AZ3Ygg1HiLSA4w-45" value="No Edge" style="shape=singleArrow;whiteSpace=wrap;html=1;arrowWidth=0.4;arrowSize=0.4;shadow=0;strokeWidth=1;spacing=6;spacingTop=-4;" vertex="1" parent="WIyWlLk6GJQsqaUBKTNV-1">
          <mxGeometry x="550" y="1510" width="80" height="60" as="geometry" />
        </mxCell>
        <mxCell id="wFF-H1AZ3Ygg1HiLSA4w-51" value="" style="edgeStyle=orthogonalEdgeStyle;rounded=0;orthogonalLoop=1;jettySize=auto;html=1;" edge="1" parent="WIyWlLk6GJQsqaUBKTNV-1" source="wFF-H1AZ3Ygg1HiLSA4w-47" target="wFF-H1AZ3Ygg1HiLSA4w-50">
          <mxGeometry relative="1" as="geometry" />
        </mxCell>
        <mxCell id="wFF-H1AZ3Ygg1HiLSA4w-57" value="" style="edgeStyle=orthogonalEdgeStyle;rounded=0;orthogonalLoop=1;jettySize=auto;html=1;" edge="1" parent="WIyWlLk6GJQsqaUBKTNV-1" source="wFF-H1AZ3Ygg1HiLSA4w-47" target="wFF-H1AZ3Ygg1HiLSA4w-56">
          <mxGeometry relative="1" as="geometry" />
        </mxCell>
        <mxCell id="wFF-H1AZ3Ygg1HiLSA4w-47" value="Make sure command exists" style="whiteSpace=wrap;html=1;shadow=0;strokeWidth=1;spacing=6;spacingTop=-4;" vertex="1" parent="WIyWlLk6GJQsqaUBKTNV-1">
          <mxGeometry x="530" y="1650" width="120" height="60" as="geometry" />
        </mxCell>
        <mxCell id="wFF-H1AZ3Ygg1HiLSA4w-55" value="" style="edgeStyle=orthogonalEdgeStyle;rounded=0;orthogonalLoop=1;jettySize=auto;html=1;" edge="1" parent="WIyWlLk6GJQsqaUBKTNV-1" source="wFF-H1AZ3Ygg1HiLSA4w-50" target="wFF-H1AZ3Ygg1HiLSA4w-54">
          <mxGeometry relative="1" as="geometry" />
        </mxCell>
        <mxCell id="wFF-H1AZ3Ygg1HiLSA4w-50" value="No Exist?" style="shape=singleArrow;whiteSpace=wrap;html=1;arrowWidth=0.4;arrowSize=0.4;shadow=0;strokeWidth=1;spacing=6;spacingTop=-4;" vertex="1" parent="WIyWlLk6GJQsqaUBKTNV-1">
          <mxGeometry x="750" y="1650" width="80" height="60" as="geometry" />
        </mxCell>
        <mxCell id="wFF-H1AZ3Ygg1HiLSA4w-54" value="Print No Exist&lt;br&gt;Mesage" style="whiteSpace=wrap;html=1;shadow=0;strokeWidth=1;spacing=6;spacingTop=-4;" vertex="1" parent="WIyWlLk6GJQsqaUBKTNV-1">
          <mxGeometry x="890" y="1650" width="120" height="60" as="geometry" />
        </mxCell>
        <mxCell id="wFF-H1AZ3Ygg1HiLSA4w-60" value="" style="edgeStyle=orthogonalEdgeStyle;rounded=0;orthogonalLoop=1;jettySize=auto;html=1;" edge="1" parent="WIyWlLk6GJQsqaUBKTNV-1" source="wFF-H1AZ3Ygg1HiLSA4w-56" target="wFF-H1AZ3Ygg1HiLSA4w-59">
          <mxGeometry relative="1" as="geometry" />
        </mxCell>
        <mxCell id="wFF-H1AZ3Ygg1HiLSA4w-56" value="Send To&lt;br&gt;_execve" style="rhombus;whiteSpace=wrap;html=1;shadow=0;strokeWidth=1;spacing=6;spacingTop=-4;" vertex="1" parent="WIyWlLk6GJQsqaUBKTNV-1">
          <mxGeometry x="550" y="1780" width="80" height="80" as="geometry" />
        </mxCell>
        <mxCell id="wFF-H1AZ3Ygg1HiLSA4w-62" value="" style="edgeStyle=orthogonalEdgeStyle;rounded=0;orthogonalLoop=1;jettySize=auto;html=1;" edge="1" parent="WIyWlLk6GJQsqaUBKTNV-1" source="wFF-H1AZ3Ygg1HiLSA4w-59" target="wFF-H1AZ3Ygg1HiLSA4w-61">
          <mxGeometry relative="1" as="geometry" />
        </mxCell>
        <mxCell id="wFF-H1AZ3Ygg1HiLSA4w-59" value="Create PiD" style="rhombus;whiteSpace=wrap;html=1;shadow=0;strokeWidth=1;spacing=6;spacingTop=-4;" vertex="1" parent="WIyWlLk6GJQsqaUBKTNV-1">
          <mxGeometry x="550" y="1940" width="80" height="80" as="geometry" />
        </mxCell>
        <mxCell id="wFF-H1AZ3Ygg1HiLSA4w-72" value="" style="edgeStyle=orthogonalEdgeStyle;rounded=0;orthogonalLoop=1;jettySize=auto;html=1;" edge="1" parent="WIyWlLk6GJQsqaUBKTNV-1" source="wFF-H1AZ3Ygg1HiLSA4w-61" target="wFF-H1AZ3Ygg1HiLSA4w-71">
          <mxGeometry relative="1" as="geometry" />
        </mxCell>
        <mxCell id="wFF-H1AZ3Ygg1HiLSA4w-101" value="" style="edgeStyle=orthogonalEdgeStyle;rounded=0;orthogonalLoop=1;jettySize=auto;html=1;" edge="1" parent="WIyWlLk6GJQsqaUBKTNV-1" source="wFF-H1AZ3Ygg1HiLSA4w-61" target="wFF-H1AZ3Ygg1HiLSA4w-100">
          <mxGeometry relative="1" as="geometry" />
        </mxCell>
        <mxCell id="wFF-H1AZ3Ygg1HiLSA4w-61" value="Fork" style="rhombus;whiteSpace=wrap;html=1;shadow=0;strokeWidth=1;spacing=6;spacingTop=-4;" vertex="1" parent="WIyWlLk6GJQsqaUBKTNV-1">
          <mxGeometry x="550" y="2100" width="80" height="80" as="geometry" />
        </mxCell>
        <mxCell id="wFF-H1AZ3Ygg1HiLSA4w-76" value="" style="edgeStyle=orthogonalEdgeStyle;rounded=0;orthogonalLoop=1;jettySize=auto;html=1;" edge="1" parent="WIyWlLk6GJQsqaUBKTNV-1" source="wFF-H1AZ3Ygg1HiLSA4w-71" target="wFF-H1AZ3Ygg1HiLSA4w-75">
          <mxGeometry relative="1" as="geometry" />
        </mxCell>
        <mxCell id="wFF-H1AZ3Ygg1HiLSA4w-71" value="Child" style="shape=singleArrow;whiteSpace=wrap;html=1;arrowWidth=0.4;arrowSize=0.4;shadow=0;strokeWidth=1;spacing=6;spacingTop=-4;" vertex="1" parent="WIyWlLk6GJQsqaUBKTNV-1">
          <mxGeometry x="550" y="2270" width="80" height="60" as="geometry" />
        </mxCell>
        <mxCell id="wFF-H1AZ3Ygg1HiLSA4w-104" style="edgeStyle=orthogonalEdgeStyle;rounded=0;orthogonalLoop=1;jettySize=auto;html=1;" edge="1" parent="WIyWlLk6GJQsqaUBKTNV-1" source="wFF-H1AZ3Ygg1HiLSA4w-73">
          <mxGeometry relative="1" as="geometry">
            <mxPoint x="660" y="2380" as="targetPoint" />
          </mxGeometry>
        </mxCell>
        <mxCell id="wFF-H1AZ3Ygg1HiLSA4w-105" style="edgeStyle=orthogonalEdgeStyle;rounded=0;orthogonalLoop=1;jettySize=auto;html=1;entryX=0.5;entryY=1;entryDx=0;entryDy=0;" edge="1" parent="WIyWlLk6GJQsqaUBKTNV-1" target="wFF-H1AZ3Ygg1HiLSA4w-102">
          <mxGeometry relative="1" as="geometry">
            <mxPoint x="900" y="2190" as="targetPoint" />
            <mxPoint x="660" y="2380" as="sourcePoint" />
          </mxGeometry>
        </mxCell>
        <mxCell id="wFF-H1AZ3Ygg1HiLSA4w-73" value="Ends" style="rhombus;whiteSpace=wrap;html=1;shadow=0;strokeWidth=1;spacing=6;spacingTop=-4;" vertex="1" parent="WIyWlLk6GJQsqaUBKTNV-1">
          <mxGeometry x="850" y="2270" width="80" height="80" as="geometry" />
        </mxCell>
        <mxCell id="wFF-H1AZ3Ygg1HiLSA4w-80" value="" style="edgeStyle=orthogonalEdgeStyle;rounded=0;orthogonalLoop=1;jettySize=auto;html=1;" edge="1" parent="WIyWlLk6GJQsqaUBKTNV-1" source="wFF-H1AZ3Ygg1HiLSA4w-75" target="wFF-H1AZ3Ygg1HiLSA4w-79">
          <mxGeometry relative="1" as="geometry" />
        </mxCell>
        <mxCell id="wFF-H1AZ3Ygg1HiLSA4w-82" value="" style="edgeStyle=orthogonalEdgeStyle;rounded=0;orthogonalLoop=1;jettySize=auto;html=1;" edge="1" parent="WIyWlLk6GJQsqaUBKTNV-1" source="wFF-H1AZ3Ygg1HiLSA4w-75" target="wFF-H1AZ3Ygg1HiLSA4w-81">
          <mxGeometry relative="1" as="geometry" />
        </mxCell>
        <mxCell id="wFF-H1AZ3Ygg1HiLSA4w-75" value="execve on path and command" style="rhombus;whiteSpace=wrap;html=1;shadow=0;strokeWidth=1;spacing=6;spacingTop=-4;" vertex="1" parent="WIyWlLk6GJQsqaUBKTNV-1">
          <mxGeometry x="550" y="2400" width="80" height="80" as="geometry" />
        </mxCell>
        <mxCell id="wFF-H1AZ3Ygg1HiLSA4w-89" value="" style="edgeStyle=orthogonalEdgeStyle;rounded=0;orthogonalLoop=1;jettySize=auto;html=1;" edge="1" parent="WIyWlLk6GJQsqaUBKTNV-1" source="wFF-H1AZ3Ygg1HiLSA4w-79" target="wFF-H1AZ3Ygg1HiLSA4w-88">
          <mxGeometry relative="1" as="geometry" />
        </mxCell>
        <mxCell id="wFF-H1AZ3Ygg1HiLSA4w-79" value="succeed" style="shape=singleArrow;whiteSpace=wrap;html=1;arrowWidth=0.4;arrowSize=0.4;shadow=0;strokeWidth=1;spacing=6;spacingTop=-4;" vertex="1" parent="WIyWlLk6GJQsqaUBKTNV-1">
          <mxGeometry x="710" y="2410" width="80" height="60" as="geometry" />
        </mxCell>
        <mxCell id="wFF-H1AZ3Ygg1HiLSA4w-87" value="" style="edgeStyle=orthogonalEdgeStyle;rounded=0;orthogonalLoop=1;jettySize=auto;html=1;" edge="1" parent="WIyWlLk6GJQsqaUBKTNV-1" source="wFF-H1AZ3Ygg1HiLSA4w-81" target="wFF-H1AZ3Ygg1HiLSA4w-86">
          <mxGeometry relative="1" as="geometry" />
        </mxCell>
        <mxCell id="wFF-H1AZ3Ygg1HiLSA4w-81" value="fail" style="shape=singleArrow;whiteSpace=wrap;html=1;arrowWidth=0.4;arrowSize=0.4;shadow=0;strokeWidth=1;spacing=6;spacingTop=-4;" vertex="1" parent="WIyWlLk6GJQsqaUBKTNV-1">
          <mxGeometry x="550" y="2570" width="80" height="60" as="geometry" />
        </mxCell>
        <mxCell id="wFF-H1AZ3Ygg1HiLSA4w-96" value="" style="edgeStyle=orthogonalEdgeStyle;rounded=0;orthogonalLoop=1;jettySize=auto;html=1;entryX=0.5;entryY=1;entryDx=0;entryDy=0;" edge="1" parent="WIyWlLk6GJQsqaUBKTNV-1" source="wFF-H1AZ3Ygg1HiLSA4w-86" target="wFF-H1AZ3Ygg1HiLSA4w-73">
          <mxGeometry relative="1" as="geometry">
            <mxPoint x="930" y="2740" as="targetPoint" />
          </mxGeometry>
        </mxCell>
        <mxCell id="wFF-H1AZ3Ygg1HiLSA4w-86" value="exit with exit_status" style="whiteSpace=wrap;html=1;shadow=0;strokeWidth=1;spacing=6;spacingTop=-4;" vertex="1" parent="WIyWlLk6GJQsqaUBKTNV-1">
          <mxGeometry x="530" y="2710" width="120" height="60" as="geometry" />
        </mxCell>
        <mxCell id="wFF-H1AZ3Ygg1HiLSA4w-91" style="edgeStyle=orthogonalEdgeStyle;rounded=0;orthogonalLoop=1;jettySize=auto;html=1;" edge="1" parent="WIyWlLk6GJQsqaUBKTNV-1" source="wFF-H1AZ3Ygg1HiLSA4w-88">
          <mxGeometry relative="1" as="geometry">
            <mxPoint x="890" y="2580" as="targetPoint" />
          </mxGeometry>
        </mxCell>
        <mxCell id="wFF-H1AZ3Ygg1HiLSA4w-88" value="Do the command" style="whiteSpace=wrap;html=1;shadow=0;strokeWidth=1;spacing=6;spacingTop=-4;" vertex="1" parent="WIyWlLk6GJQsqaUBKTNV-1">
          <mxGeometry x="690" y="2550" width="120" height="60" as="geometry" />
        </mxCell>
        <mxCell id="wFF-H1AZ3Ygg1HiLSA4w-103" value="" style="edgeStyle=orthogonalEdgeStyle;rounded=0;orthogonalLoop=1;jettySize=auto;html=1;" edge="1" parent="WIyWlLk6GJQsqaUBKTNV-1" source="wFF-H1AZ3Ygg1HiLSA4w-100" target="wFF-H1AZ3Ygg1HiLSA4w-102">
          <mxGeometry relative="1" as="geometry" />
        </mxCell>
        <mxCell id="wFF-H1AZ3Ygg1HiLSA4w-100" value="Parent" style="whiteSpace=wrap;html=1;shadow=0;strokeWidth=1;spacing=6;spacingTop=-4;" vertex="1" parent="WIyWlLk6GJQsqaUBKTNV-1">
          <mxGeometry x="370" y="2110" width="120" height="60" as="geometry" />
        </mxCell>
        <mxCell id="wFF-H1AZ3Ygg1HiLSA4w-106" style="edgeStyle=orthogonalEdgeStyle;rounded=0;orthogonalLoop=1;jettySize=auto;html=1;" edge="1" parent="WIyWlLk6GJQsqaUBKTNV-1" source="wFF-H1AZ3Ygg1HiLSA4w-102">
          <mxGeometry relative="1" as="geometry">
            <mxPoint x="40" y="360" as="targetPoint" />
          </mxGeometry>
        </mxCell>
        <mxCell id="wFF-H1AZ3Ygg1HiLSA4w-102" value="WAIT" style="ellipse;whiteSpace=wrap;html=1;shadow=0;strokeWidth=1;spacing=6;spacingTop=-4;" vertex="1" parent="WIyWlLk6GJQsqaUBKTNV-1">
          <mxGeometry x="390" y="2240" width="80" height="80" as="geometry" />
        </mxCell>
      </root>
    </mxGraphModel>
  </diagram>
</mxfile>
